<?xml version="1.0" standalone="no"?>
<!DOCTYPE svg PUBLIC "-//W3C//DTD SVG 20010904//EN"
 "http://www.w3.org/TR/2001/REC-SVG-20010904/DTD/svg10.dtd">
<svg version="1.0" xmlns="http://www.w3.org/2000/svg"
 width="256.000000pt" height="256.000000pt" viewBox="0 0 256.000000 256.000000"
 preserveAspectRatio="xMidYMid meet">
<metadata>
Created by potrace 1.14, written by Peter Selinger 2001-2017
</metadata>
<g transform="translate(0.000000,256.000000) scale(0.100000,-0.100000)"
fill="#000000" stroke="none">
<path d="M665 2540 c-39 -26 -65 -60 -65 -87 0 -15 -7 -24 -22 -27 -33 -7 -99
-18 -124 -22 -65 -8 -102 -25 -113 -52 -16 -37 0 -79 34 -92 15 -6 109 -10
211 -10 l184 0 0 -42 c0 -24 1 -306 1 -628 0 -328 5 -613 10 -649 30 -193 180
-367 367 -422 50 -15 50 2 4 -208 l-27 -123 -64 -3 c-86 -4 -104 -22 -109
-110 l-4 -65 441 0 441 0 0 61 c0 54 -3 64 -29 88 -25 23 -38 27 -83 27 -50
-1 -53 1 -52 24 1 36 14 108 23 134 5 11 14 51 20 87 l13 66 61 11 c95 18 200
75 271 146 69 70 103 126 142 241 26 75 28 94 32 283 l4 203 -43 -6 c-60 -9
-135 -45 -188 -91 l-44 -38 -413 -1 c-269 0 -414 4 -415 10 0 6 -2 276 -3 600
-2 644 2 610 -61 667 -43 40 -83 48 -235 48 -117 0 -139 -3 -165 -20z m869
-2095 c-22 -137 -55 -265 -67 -266 -12 -1 -133 -1 -153 0 -9 1 -9 13 -2 44 5
23 12 52 14 65 10 51 43 182 48 190 2 4 41 8 86 8 l81 0 -7 -41z"/>
</g>
</svg>
